<?xml version="1.0" standalone="no"?>
<!DOCTYPE svg PUBLIC "-//W3C//DTD SVG 20010904//EN"
 "http://www.w3.org/TR/2001/REC-SVG-20010904/DTD/svg10.dtd">
<svg version="1.0" xmlns="http://www.w3.org/2000/svg"
 width="85.000000pt" height="85.000000pt" viewBox="0 0 85.000000 85.000000"
 preserveAspectRatio="xMidYMid meet">
<metadata>
Created by potrace 1.11, written by Peter Selinger 2001-2013
</metadata>
<g transform="translate(0.000000,85.000000) scale(0.100000,-0.100000)"
fill="#000000" stroke="none">
<path d="M335 775 l-89 -46 -95 41 c-53 22 -102 40 -108 40 -10 0 -13 -75 -13
-344 l0 -344 107 -47 106 -46 92 45 91 46 107 -45 107 -45 90 45 90 45 0 345
c0 228 -3 345 -10 345 -6 0 -47 -18 -91 -41 l-81 -40 -104 45 c-58 25 -106 46
-107 46 -2 0 -43 -20 -92 -45z"/>
</g>
</svg>
